<svg id="SvgjsSvg1034" width="288" height="288" xmlns="http://www.w3.org/2000/svg" version="1.1" xmlns:xlink="http://www.w3.org/1999/xlink" xmlns:svgjs="http://svgjs.com/svgjs"><defs id="SvgjsDefs1035"></defs><g id="SvgjsG1036"><svg xmlns="http://www.w3.org/2000/svg" data-name="Layer 1" viewBox="0 0 24 24" width="288" height="288"><path d="M19,0H5C2.243,0,0,2.243,0,5v14c0,2.757,2.243,5,5,5h14c2.757,0,5-2.243,5-5V5c0-2.757-2.243-5-5-5Zm-3,13h-3v3c0,.553-.448,1-1,1s-1-.447-1-1v-3h-3c-.552,0-1-.447-1-1s.448-1,1-1h3v-3c0-.553,.448-1,1-1s1,.447,1,1v3h3c.552,0,1,.447,1,1s-.448,1-1,1Z" fill="#47147a" class="color000 svgShape"></path></svg></g></svg>