<svg id="SvgjsSvg1001" width="288" height="288" xmlns="http://www.w3.org/2000/svg" version="1.1" xmlns:xlink="http://www.w3.org/1999/xlink" xmlns:svgjs="http://svgjs.com/svgjs"><defs id="SvgjsDefs1002"></defs><g id="SvgjsG1008"><svg xmlns="http://www.w3.org/2000/svg" viewBox="0 0 2921 2921" width="288" height="288"><circle cx="1460.5" cy="1460.5" r="1460.5" fill="#0e1525" class="color4e66f1 svgShape"></circle><path fill="#2b3245" fill-rule="evenodd" d="M1857.3,756.511c0.9,0.3,1.81.6,2.72,0.906C1859.11,757.115,1858.2,756.813,1857.3,756.511Zm2.72,0.906c3.71,0.739,28.62,6.747,30.8,9.06,0.3,0.3.61,0.6,0.91,0.906C1879.54,769.49,1865.37,766.489,1860.02,757.417ZM2442.6,903.288l14.49,0.906c1.16,2.016.92,1.5,2.72,2.719,0.83,5.141,1.74,12.4-.9,16.308-9.02,6.62-15.85,6.885-15.41,23.557h-0.9c-2.75,2.245-4.62,2.742-9.97,2.718-5.99-11.173-12.58-22.314-12.68-34.429,1.83-.229,3.3-4.765,7.24-7.249Q2434.9,905.555,2442.6,903.288ZM623.278,1014.73c8.824-.36,22.887-1.07,25.369,6.34h-4.53c-5.938,2.75-14.182-2.72-20.839-3.62v-2.72Zm1683.412,62.52,19.93,0.9v2.72h-1.81c-5.04,2.63-12.32,1.36-18.12.91v-4.53Zm155.84,12.68h2.72v1.81c8.26,15.52-7.76,41.36-11.78,48.93-3.68,6.94,1.19,12.89-8.15,14.5-0.61-.31-1.21-0.61-1.82-0.91v-3.62C2437.87,1139.92,2457.85,1094.28,2462.53,1089.93Zm-248.25,21.75c23.12-.63,38.7,1.79,58.89,5.43,7.99,1.44,15.26-1.96,18.12,4.53q-4.98,4.08-9.97,8.16c-22.36-10.22-42.35,5.39-69.76,0-11.6-2.29-24.27.44-26.28-10.88C2192.69,1116.53,2206.42,1115.74,2214.28,1111.68ZM515.46,1155.17c16.7-.61,48.666,10.18,49.832,19.93-2.015,1.16-1.5.91-2.718,2.72l-32.617,5.43c-10.333,2.23-37.816-13.25-38.054-21.74,0.3-.3.6-0.61,0.906-0.91C496.421,1160.09,511.869,1157.04,515.46,1155.17Zm1699.72,5.43c3.23,1.43,3.4.69,4.53,4.53h-4.53v-4.53Zm281.78,20.84a54.81,54.81,0,0,1,16.31,1.81c2.4,6.33,4.75,9.52,3.62,18.12-7.25,3.67-31.16,20.18-36.24,20.84-3.32-7.71-4.61-15.03-4.53-27.18C2482.42,1189.89,2490.05,1186.46,2496.96,1181.44ZM533.581,1202.28c7.662,0.42,14.913,4.66,25.369,2.72,5.2-.97,12.659-4.3,19.933-2.72,16.559,3.6,35.644,8.78,50.738,13.59,11.014,3.51,24.787,6.22,29.9,15.4,0.3,0.31.6,0.61,0.906,0.91h-1.812c-5.566,4.03-25.874,2.62-33.524.91q-16.307-4.995-32.617-9.97c-7.073-1.34-18.46,3.13-23.557,4.53-7.691,2.12-17.941.3-26.275-.91-3.521-8.32-10.716-10.56-10.872-21.74C533.089,1203.71,532.68,1204.31,533.581,1202.28ZM2195.25,1371.71q0.45-4.53.91-9.06c5.66-2.48,9.27-7.91,13.59-11.78,19.03-17.09,13.72-28.93,19.93-57.99,6.78-.85,19.59-18.63,20.84-28.99q-0.915-2.265-1.81-4.53c-5.75-2.16-15.95-5.94-19.03-10.87-3.95-8.66,7.87-13.74,10.87-19.03q1.365-6.8,2.72-13.59c4.73-5,25.17-5.78,33.52-3.62q9.975,3.615,19.94,7.24l38.05-.9,18.12,13.59q6.345,1.815,12.68,3.62,0.465,6.795.91,13.59c7.24,33.39-1.4,36.54-14.5,57.08-4.16,6.54-5.22,14.1-13.59,16.31q-8.145.45-16.31,0.91c-14.07,6.7-19.31,27.1-39.86,28.09-5.63-7.7-6.38-26.47-19.03-27.19-7.54,10.98-12.75,26.77-15.4,42.59-2.83.42-5.42,3.38-11.78,3.62C2226.77,1356.21,2207.65,1370.89,2195.25,1371.71ZM392.239,1360.84c13.3-1.11,25.233-6.12,37.148-9.06,15.948-3.95,52.45,5.35,57.08,12.68h-0.906c-2.092,1.41-3.934,1.49-5.436,3.62v6.35c4.216,0.6,36.362,17.85,38.959,20.84,2.96,4.44.589,8.06-.906,12.68-6.6,2.07-25.414,8.21-26.275,16.31,0.3,0.6.6,1.21,0.906,1.81,10.735,6.49,28.309,10.69,35.336,20.84v3.62c-2.822.25-12.964,5.28-15.4,9.06-0.937,2.36.124,5.05,0.906,8.16,6.589,1.2,17.474,7.67,20.839,12.68,1.2,1.79,2.485,9.8,5.436,12.69,3.357,3.28,7.586.67,12.685,2.72,5.96,2.39,37.4,21.18,38.959,26.27-8.084,5.21-6.085,21.88-6.342,32.62-3.469,1.47-6.382,5.48-9.966,6.34-26.811,6.45-44.728-20.95-58.893-28.09-9.449-4.76-23.471,9.01-37.147,9.06-2.991-6.66-5.438-20.95-10.873-25.37-8.3-6.74-13.457.71-13.59-15.4,4.425-5.38,4.377-16.48,0-21.74-6.263-6.6-23.876-11.56-38.96-11.78-1.927-17.1-6.343-33.97-8.154-48.93,3.261-2.5,4.417-4.05,4.53-9.96-3.027-4.24-10.352-11.17-10.872-15.41Q396.77,1377.145,392.239,1360.84Zm100.57,131.37-9.966,4.53c-0.947,5.18-2.507,6.11-2.718,12.69,2.357,0.92,1.658,1.05,4.53,1.81,5.065,2.42,29.283,2.79,34.429,3.62,1.151-2.03,1.557-1.6,2.718-3.62-8.776-4.51-13.645-16.26-23.557-18.12C496.434,1492.82,494.621,1492.51,492.809,1492.21Zm-45.3,87.89c13.661-1.65,27.506.75,30.805,11.78,2.19,4.3-8.946,47.11-10.873,49.83C465.675,1618.25,449.464,1602.68,447.508,1580.1ZM983.88,1983.28c-1.126-6.12-5.767-9.28-1.812-15.4q5.889-1.815,11.779-3.62c2.86,4.19,4.6,3.65,4.53,11.77q-1.359,5.9-2.718,11.78c5.591,2.78,12.591,9.86,13.591,17.22,0.3,2.11.6,4.23,0.91,6.34-21.7,6.87-40.076-5.45-56.179-10.87-10.619-3.58-20.167,1.88-20.839,9.96q2.265,5.445,4.531,10.88c20.352,2.87,27.784,20.73,38.959,31.71,5.72,1.17,17.135,7.65,25.368,10.87-0.3.91-.6,1.81-0.91,2.72-7.522.18-55.254,4.67-59.793,9.96v6.35c6.677,2.03,14.273,6.14,15.4,13.59v13.59c2.788,1.8,3.045,2.86,7.249,3.62-0.328,11.45-4.667,17.03-1.812,28.99,8.562-.18,17.173-2.6,28.087-2.71,1.211,4.8,2.037,11.78,3.624,17.21,2.3,7.87-5.171,8.89-1.812,16.31,6.444,13.22,35.925,30.59,52.545,34.43,12.52,2.89,22.15-13.08,33.53-6.34,5.42,5.02,6.67,12.81,15.4,15.4,10.09,5.23,18.4-5.8,24.46-8.16,2.45,10.89,36.06,33.36,46.21,34.43,3.01-6.85,10.97-11.74,18.12-14.49q8.61,8.145,17.22,16.31c12.76-.31,35.14-7.57,45.3,0,3.77,2.81,1.85,8.59,4.53,12.68a171.81,171.81,0,0,1,10.87,18.12q1.365,5.9,2.72,11.78c5.14,8.74,13.29,7.13,21.74,12.68,6.71,4.41,4.86,9.93,17.22,9.97,8-9.71,19.61,3.29,32.62-2.72,13.74-6.35,21.14-25.24,39.86-25.37,8.69-4.96,24.66,1.89,33.52.91,15.7-1.74,53.94,20.33,62.52,28.09,5.1,4.6,13.17,8.11,14.5,16.31,4.47,10.14-10.88,16.02-2.72,22.65,3.49,2.23,8.83-.25,13.59,1.81,7.14,3.09,20.51,13.46,29.9,8.15,6.56-3.71,7.22-10.62,17.21-11.78,2.04,2.64,5.24,2.85,9.06,5.44,14.13,9.58,18.2,26.88,38.96,30.81v0.9c-20.79,1.04-40.21,8.5-64.32,9.06v3.63H1382.54q1.8-8.16,3.62-16.31c6.91-2.6,12.02-6.05,11.78-16.31-1.77-1.26-1.51-2-2.72-3.63-10.35-10.71-13.53-1.13-23.56-4.53-8.18-2.77-18.83-5.52-26.27-8.15-5.37-1.9-8.67,1.96-12.69,2.72-9.62,32.05,6.69,32.64,33.53,39.86v1.82h-3.63q-10.41-.465-20.84-0.91c-10.19-2.55-22.48-5.04-34.43-8.15-23.39-6.1-50.61-14.6-72.48-20.84l-41.68-4.53c-20.09-5.23-46.57-11.55-66.14-18.12q-9.96-.465-19.93-0.91c-8.32-2.52-23.2-8.08-31.71-10.87q-6.8-.45-13.59-0.91l-9.06-5.43c-9.45-3.83-16.89-3.29-26.28-7.25-3.7-1.57-7.13-5.15-11.77-6.35l-13.6-.9q-5.429-2.715-10.867-5.44H977.538c-13.01-3.4-29.1-7.63-42.584-12.68-11.8-4.43-24.1-13.23-38.053-17.22l-14.5-.9c-1.841-.6-34.988-22.66-35.335-23.56,2.773-2.61,3.559-4.39,3.624-9.97-6.1-5.89-6.836-12.97-6.342-23.55-6.016-4.06-10.678-10.22-19.933-10.88-1.712,12.22-10.282,11.84-15.4,19.94-0.3-.3-0.6-0.61-0.906-0.91q-8.607-7.7-17.215-15.4c10.141-2.82,16.594-11.43,28.993-13.59,1.392-7.65,5.32-16.82,0-23.56-3.642-2.93-9.276-2.95-16.309-2.72-2.849,3.43-14.22,3.92-22.651,3.63q-0.452-3.18-.906-6.34c8.517-3.88,25.912-12.64,28.994-21.75,0.3-1.21.6-2.42,0.906-3.62-5.437-3.13-17.473-6.74-19.933-12.69-6.733-14.29,16.779-24.27,19.027-35.33-11.02.29-19.728-10.31-28.994-14.5H763.714v-2.72h1.812l13.59-.9q0.906-2.73,1.812-5.44c3.02-.6,6.041-1.21,9.061-1.81,5.415-3.33,12.391-8.51,16.308-13.59-3.73-4.38-10.5-10.23-11.778-16.31v-6.34c2.686-6.43,8.381-7.13,9.966-16.31-0.6-.91-1.208-1.81-1.812-2.72-10.981-7.98-22.441-1.77-33.523.91-9.977,2.4-19.958-1.89-26.275-3.63-25.727-7.08-28.229,1.39-45.3-14.5-4.481-4.17-7.105-1.59-7.248-10.87,5.426-3.6,3.783-14.21.906-19.02,0,0-22.605-25.16-26.275-27.19H640.493c-14.654-8.6-32.373-14.16-48.02-3.62-2.764,1.86-8.444,1.77-9.966,4.53v16.31c-0.3-.6-0.6-1.21-0.906-1.81-11.212-18.03-12.865-39.01-21.745-59.8-7.681-17.98-18.884-37.06-23.557-57.99-2.346-10.5-8.873-36.86-6.342-45.3,2.012-3.63,6-4.34,8.154-7.25,3.119-4.21-.52-10.86,1.812-16.31,4-9.35,14.384-18.75,23.557-22.65,16.429-6.98,41.8-.41,55.268-10.87,7.669-7.73,7.536-18.22,13.591-28.09,6.224-10.14,16.121-27.39,25.369-38.05,2.639-3.04,8.44-3.96,10.872-7.25,2.735-3.7,2.3-8.66,5.436-11.78,4.044-4.01,10.447-1.95,15.4-5.43,3.688-2.6,4.939-8.43,9.966-9.97,5.985-1.83,13.846-.29,18.121-1.81,5.537,6.68,14.154,8.57,15.4,19.93-2.824,1.9-19.043,30.76-19.027,30.81,2.877,8.4,6.106,10.33,8.154,20.84-4.038.53-8.7,7.33-12.684,10.87v6.34c3.156,1.82,4.351,5.75,7.248,7.25,6.295,3.25,15.091.9,19.027,6.34,0,0,7.869,34.88,7.248,39.87-5.692,3.38-8.566,10.74-13.591,14.49q-6.793,3.63-13.59,7.25c-3.618,4.88-10.618,20.96-12.685,26.28q-0.452,4.53-.906,9.06c-5.1,6.68-12.843,6.2-15.4,14.49-1.922,2.96-1.41,4.2-.906,8.16h1.812c17.472,8.48,30.632-10.05,43.49,5.43,15.7,18.91-4.524,33.01-1.813,43.49,2.041,7.89,10.581,7.46,16.309,11.78q4.077,5.445,8.154,10.87c6.75,4.96,22.267,3.3,32.618,4.53,1.17,2.84,1.725,2.22,2.718,5.44q0.906,8.16,1.812,16.31c5.85,1.78,13.064,4.02,13.59,11.78,1.585,5.3-3.7,13.19-.906,18.12v0.9c17.591,2.2,20.132-11.69,37.148-9.96v2.72c1.446,4.14-2.463,8.95-3.624,13.59a41.274,41.274,0,0,0,13.59,1.81c5.658-3.83,17.981-11.32,27.181-9.97q11.325,0.45,22.651.91c14.5-3.47,18.115-18.67,39.866-13.59C957.884,1970.15,966.437,1984.09,983.88,1983.28ZM509.118,1641.71h9.06v1.81c-2.662,1.73-3.279,3.87-6.342,5.44l-2.718.9c-1.444-2.62-2.046-2.52-2.718-6.34C508.457,1642.64,507.829,1643.02,509.118,1641.71Zm1312.842,20.84c16.27-.33,27.02,7.51,38.96,9.06,23.63,3.05,66.76,14.77,67.05,41.67-0.3.61-.61,1.21-0.91,1.82-4.28,1.98-7.94,5.62-11.78,7.24-10.92,4.63-22.16-5.4-27.18-8.15q-11.325-2.715-22.65-5.44c-17.02-7.19-30.96-18.87-42.58-31.71C1822.34,1671.86,1820.87,1666.73,1821.96,1662.55Zm-1345.459.9c29.772,0.29,49.8,11.74,58.892,31.71v11.78c0.226,21.93-10.081,40.98-25.369,48.93v-0.91c-3.437-3.88-3.33-8.89-6.342-13.59q-5.889-6.345-11.779-12.68-3.171-18.12-6.342-36.25Q481.031,1677.95,476.5,1663.45Zm647.819,86.98c0.15,29.63-11.79,27.59-16.31,45.3q-0.915,13.14-1.81,26.28c-2.07,5.25-9.28,10.56-6.35,20.84,3.05,10.68,15.95,13.96,20.84,22.65,4.02,8.05-2.21,16.1-3.62,21.74-5.55,22.16-11.65,37.16-19.94,56.18-2.28,5.23-9.05,12.71-5.43,20.84,3.07,8.34,10.15,9.37,16.31,14.49,21.38,17.8,42.12,33.28,77.92,18.12,7.91-3.35,18.96-3.56,22.65-10.87,3.26-4.24.66-10.48,4.53-15.4,4.79-6.09,14.84-5.87,20.84-10.87,3.5-2.93,8.11-9.1,10.87-12.69,4.41-5.74.42-16.57,4.53-23.56,10.14-17.27,33.1-25.45,56.17-27.18,4.16,3.44,8.43,4.66,9.97,10.88,12.26,22.04-25.69,54.31-36.24,63.42,0.55,13.09,13.01,30.63,2.72,44.39-11.35,15.18-29.04,20.08-46.21,29.9q-12.69,14.5-25.37,29l-4.53,19.02c-2.52,8.43-7.21,12.21-4.53,22.65,15.41,2.2,39.77,10.69,39.86,28.09-3.19,2.14-4.03,10.49-3.62,10.87,1.61,3.07,1.8,2.64,6.34,2.72,10.84-7.3,51.1,20.41,51.65,32.62-3.02,1.7-3.08,2.8-7.25,3.62-6.2,3.1-42.76-6.34-50.74-8.15-10.11-2.3-13.41,9.11-23.56,6.34-11.54-3.15-21.65-15.35-32.61-20.84-12.22-6.11-25.35-1.24-32.62-9.96q6.345-6.345,12.68-12.69v-7.25l-9.06-9.96c-4.98-7.77,3.76-14.2,4.53-23.56q-3.615-5.43-7.25-10.87-11.31-9.51-22.65-19.03c-10.11-13.64-18.66-34.86-32.61-44.4-16.31-11.14-40.84-16.65-48.93-35.33-9.39-21.68,6.85-62.24,9.97-77.01,1.98-9.42-3.15-15.35-4.53-20.84-1.83-7.26,5.65-9.48,2.72-16.31-2.32-5.39-5.9-11.26-8.16-18.12-1.46-4.43,3.3-11.97,1.81-15.4-1.79-4.15-5.06-3.35-5.43-10.88,3.6-2.7,2.95-7.94,5.43-11.78,2.33-3.59,7.31-4.96,9.97-8.15,5.45-6.54,9.84-29.95,7.25-42.58-2.05-10-8.57-11.62-9.06-22.65,5.36-3.34,11.99-24.55,19.02-25.37,7.47,10.78,5.15,34.15,16.31,39.86l9.06,3.63C1101.69,1769.59,1121.74,1750.93,1124.32,1750.43Zm850.76,19.03c23.51-.4,27.98,2.41,41.68,9.96,9.54,5.27,36.24-2.83,38.96-1.81,9.55,3.59,20.64,11.14,29.9,15.4l22.65,3.63c9.64,3.38,21.3,11.81,27.18,16.31,9.16,7.01,32.83,7.8,33.52,22.65-7.68,4.69-11.52,14.68-23.55,17.21-6.45-7.18-27.46-5.47-40.77-9.06-5.68-1.53-11.57-7.33-17.22-9.06-12.41-3.79-38.3,6.09-56.17,1.81-26.58-6.35-40.07-9.75-57.08-25.36-2.82.11-17.05-9.08-19.03-14.5C1949.75,1785.02,1967.73,1773.04,1975.08,1769.46Zm-593.45,9.96h3.62c3.18,5.94,6.94,26.98,2.72,33.53-2.31,2.37-3.17,2.67-8.15,2.72-1.21-2.12-2.42-4.23-3.63-6.35C1370.43,1800.25,1376.38,1785.54,1381.63,1779.42ZM1013.78,1880.9c8.61,6.06,13.45,13,20.84,19.93-0.3.61-.61,1.21-0.91,1.82-7.23,13.88-24.59,21.12-45.3,21.74-1.987-3.05-3.092-3.2-3.625-8.15,7.438-5.08,11.2-15.13,16.3-22.66C1004.31,1888.85,1010.6,1885.58,1013.78,1880.9ZM676.734,2043.99l-0.906,5.43c-3.776,1.31-4.744,3.38-6.342,1.81-0.3-1.2-.6-2.41-0.906-3.62,1.594-1.17,1.689-1.7,3.624-2.72Zm-52.55,2.71c2.921,1.55,2.119.58,2.719,4.53H626v-1.81C624.676,2048.14,625.085,2048.73,624.184,2046.7Zm407.716,15.41c16.64-.19,21.11,10.58,28.99,19.02q-0.45,2.73-.9,5.44h-2.72c-9.42,4.83-24.22-6.56-29.9-9.97-0.87-4.39-3.63-6.97-2.72-9.96,1.29-2.01-.16-0.52,1.81-1.81Q1029.19,2063.465,1031.9,2062.11Zm68.86,91.51c13.52-.53,42.77,1.81,44.39,10.87-4.95.98-9.14,4.47-12.68,7.25-4.56-1.31-4.69-2.93-9.97-3.63-0.93,3.61-11.45,24.21-13.59,25.37h-18.12c-1.59-1.91-4.11-1.56-6.34-2.72h-0.91c-1.22-17.63,3.81-26.81,13.59-36.24Zm244.63,55.26c-14.15.51-18.88-.85-35.34-0.9-3.07-4.26-6.44-3.89-7.25-10.87,2.51-.97,1.98-1.25,5.44-1.82,2.34,0.55,8.78-2.39,14.5-.9C1327.98,2195.76,1344.35,2203.18,1345.39,2208.88Zm-223.79-10.87h5.43v1.81c-1.81.61-3.62,1.21-5.43,1.82v-3.63Zm256.41,200.24h-4.53v-3.63q-2.73-.45-5.44-0.9l9.97,0.9v3.63Z" data-name="Color Fill 4" class="color2d353c svgShape"></path><path fill="#458f95" fill-rule="evenodd" d="M405.83,522.754h19.933v2.718c-4.646,2.973-18.575,31.733-19.933,39.865,3.506,2.235,4.066,7.542,7.248,9.967l21.745,4.53c4.008,2.026,12.822,8.813,18.121,12.684,6.73,4.918,18.964,6.386,26.275,9.967,8.514,4.169,20.884.729,29.9,4.53,6.2,2.616,40.008,24.591,42.584,28.993,0.9,1.524,4.62,35.764,4.53,36.241h-7.249c-2.774-6-3.963-2.475-9.966-5.436-1.819-.9-4.313-5.29-6.342-6.342l-19.933-.906c-4.545-2.474-11.256-10.687-14.5-12.685-8.57-5.281-16.554-.16-26.274-4.53-8.377-3.765-18.37-6.725-27.182-9.06-12.917-3.424-28.917,2.832-31.711,9.966v5.436c9.719,3.556,19.531,9.04,28.993,13.591,8.793,4.229,17.938.466,26.275,4.53,5.961,2.9,15.195,9.59,27.181,9.966v5.437l-0.906.906-41.677,9.966c-1.515,1.573-1.081.81-1.812,3.624l1.812,2.718c7.111,7.359,30.419,10.7,47.114,7.249,10.549-2.178,22.413-7.7,32.617-9.967l20.839-.906c3.388-1.319,8.814-5.464,11.778-6.342,13.014-3.856,41.007,5.125,43.49,12.685,3.459,7.2-5.589,15.867-8.155,20.838,3.669,2.423,7.606,9.051,8.155,14.5-29.5,13.169-29.5,4.029-55.268-6.342l-13.591-.906c-6.411-5.184-7.484-8.718-19.933-9.061-1.81,2.792-10.417,9.059-13.59,9.967l-14.5-1.812-35.335.906c-5.05,1.2-13.212,4.43-21.745,2.718-15.039-3.019-32.323-6.186-40.771,2.718V545.4C396.289,536.477,404.289,531.134,405.83,522.754Zm93.322,34.429L502.776,559V559.9h-2.718V559Zm569.9,357.884h-3.63c-4.3-6.953-7.93-17.755-11.77-24.463-6.4-1.18-15.37-4.05-25.37-.906-5.02,1.577-5.04,3.671-11.78,3.624-4.27-7.7-26.752-34.2-33.526-38.96-8.516-5.986-19.842-5.136-28.087-10.872-14.594-10.153-14.5-20.163-39.865-19.027v16.309c17.7,9.108,18.746,42.861,28.087,60.7v28.993c-5.268,13.378-9.188,11.73-18.121,22.651-2.981,3.644-3.682,9.876-6.342,13.591-3.074,4.292,5.945,26.091,1.812,34.429-1.968,3.97-9.07,8.63-12.685,13.59-4.678,6.42-.182,13.89-2.718,21.75-2.218,6.87-10.75,12.27-15.4,17.21l1.812,13.59c7.374,1.89,8.3,6.93,13.59,9.97,19.486,11.18,35.513,8.02,48.02,24.46,6.23,8.19,5.648,20.97,11.779,28.99,6.929,9.07,23.989,23.27,33.523,29.9,4.463,3.11,9.653,2.93,12.683,7.25,4.73,6.75,15.71,22.18,13.59,33.52l-4.53,13.59c1.03,13.06,7.31,22.35,7.25,38.96-2.38.77-1.02-.62-1.81,1.82q0.9,5.88,1.81,11.77c5.77,3.57,5.86,6.47,16.31,6.35,4.9,2.94,12.41,6.22,18.12,7.24,1.29-2.43,1.55-3.54,3.62-2.71,2.89,1.57,9.95,9.92,11.78,12.68,1.27,1.89,1.51,3.15,1.81,6.34-3.07,1.56-5.57,2.31-7.24,5.44,1.05,0.96,7.14,45.7,7.24,49.83-6.41,5.76-9.91,13.2-9.96,25.37h1.81c1.21,0.3,2.42.6,3.62,0.91,2.34-4.16,4.17-6.27,10.88-6.35,1.91,3.14,6.11,10.37,9.06,12.69,1.2,0.3,2.41.6,3.62,0.9,3.68,4.91,5.41,16.89,9.97,22.66,4.44,3.68,11.32,6.1,19.02,6.34,5.5-6,22.12-34.9,29.9-38.96v0.9c11.72,4.7,20.63,36.63,31.71,40.78q4.995,0.9,9.97,1.81c2.91,13.11,6.97,38.58,11.78,53.45,4.29,13.28-13.41,28.52.91,38.96,1.2,0.31,2.41.61,3.62,0.91,10.51-25.4-3.51-35.76,16.31-55.27,5.43-5.34,4.92-9.89,16.31-9.96,0.3-.31.6-0.61,0.9-0.91,1.53,3.55,4.55,3.76,6.34,6.34,8.83,12.69-.15,28.49,22.66,29.9,7.06-7.66,12.06-1.42,21.74-3.62,3.67-.84,3.37-3.23,9.06-3.63,3.65,11.27,8.85,20.65,12.69,29.9,4.8,11.6-1.6,32.59-1.82,42.59,24.49,10.66,29.6,86.95,7.25,100.57l-8.15.9c-2.93,4.92-7.7,6.82-9.06,13.59-5.91,11.63,5.71,26.88,8.15,35.34,4.2,14.55-10.24,34.36-1.81,49.83,0.82,1.5,4.52,3.92,5.44,5.44,4.27,7.13,3.58,11.52,10.87,15.4,5.24,2.84,17.99-4.12,19.02-6.34,3.52-5.42,1.83-12.02,4.53-19.03,3.66-9.48,7.15-18.92,14.5-28.09,3.89-4.85,11.58-7.01,15.4-11.78,4.07-5.06,8.34-14.52,13.59-18.12,11.43-7.83,19.4-5.23,28.09-17.21,6.54-9.02,9.16-20.32,15.4-29.9,12.47-19.14,29.02-38.61,42.59-57.08,4.31-5.87,6.05-18.25,11.78-22.65,12.58-9.68,34.35-22.56,50.73-27.18q12.69-1.365,25.37-2.72c9.45-2.16,27.65-5.43,40.77-2.72,32.85,6.79,57.62,33.11,90.61,35.34v-6.35c4.84-2.72,10.71-5.81,11.78-12.68-1.93-1.3-1.66-1.56-2.72-3.63-6.39-1.21-11.53-5.33-20.84-3.62-6.89,1.27-9.66,3.44-18.12,3.62-2.64-4.3-7.36-5.04-9.97-9.06l5.44-.9c2.42,3.32,11.16,3.4,16.31,3.62-0.71-9.42-7.27-18.62-16.31-19.93-6.74-4.09-19.78-3.49-19.93,5.44,3.79,1.66,5.5,2.41,6.34,7.24-0.61.31-1.21,0.61-1.81,0.91-4.79-.93-16-3.13-17.22-8.15v-1.82c2.1-3.82,4.9-3.54,6.34-8.15-0.3-.6-0.6-1.21-0.9-1.81-13.11-2.07-19.04-12.82-27.18-19.93-5.27-4.61-15.94-6.47-21.75-9.97-3.5-2.11-24.38-.91-27.18-3.63-0.88.58-3.14,3.44-6.34,1.82-7.81-3.96-21.46-15.96-33.52-8.16-4.53,2.93-6.63,9.65-10.88,12.69-6.25,4.46-11.63,6.77-16.31,11.78q-1.8,5.43-3.62,10.87c-9.19,15.81-23.07,33.86-48.93,33.52-1.6-4.23-2.36-15.21-5.43-19.03-4.69-5.82-12.27-3.6-15.4-9.96-13.7-19.31-5.79-55.36,4.53-69.77,10.99-1.77,20.85-15.26,24.46-27.18,7.21-23.84,2.64-80.54,23.56-86.98,1.74,2.23,4.06,1.98,8.15,1.81,5.16-10.1,16.81-17.68,22.65-27.18,4.66-7.58,5.27-16.54,12.69-21.74,7.7-6.66,13.61-5.07,23.55-3.63,1.92-14.31,12.75-19.73,18.12-30.8q9.51-.45,19.03-0.91c6.56-15.4,22.7-19.67,34.43-29.9,5.11-4.45,15.1-24.83,19.93-31.71,9.6-13.66,41.81-42.49,41.68-65.23-4.09-3.02-7.86-20.87-4.53-29.9,4.18-11.34-1.69-31.72,2.72-43.49,2.77-7.41,7.38-18.45,3.62-32.62-4.61-17.361-19.5-2.25-30.8-7.25-3.98-1.752-7.86-5.848-11.78-8.15-0.26-44.411-43.64-38.5-78.83-37.148-2.23-2-3.93-2.539-5.43-5.436-3.4-6.05-.65-18.137,0-26.275,4.14-2.143,12.1-6.67,14.49-11.778-3.17-9.527,5.06-24.849,17.22-24.463,2.31,2.373,3.17,2.672,8.15,2.718,2.08-2.99,4.01-2.331,5.44-6.342,2.77-4.774,1.06-18.262,0-25.37-8.96-3.844-11.75-14.847-19.03-19.932l-10.87-1.812c-6.04-2.926-13.63-8.369-19.03-12.685-11.58-9.255-10.12-18.932-17.21-32.617-3.44-6.642-13.63-12.078-19.03-17.215-4.46-4.247-7.15-29.127-9.97-28.087q-0.9-2.718-1.81-5.436h3.63c8.22,3.963,52.12-1.808,65.23-1.812h153.12c18.26-.118,33.62-8.468,53.46-4.53,16.48,3.271,25.85,11.415,38.96,16.308l40.77,6.343c8.8,2.972,14.13,9.016,22.65,12.684,4.89,2.109,9.9-1.782,12.68-2.718q9.975,4.53,19.94,9.06c7.99,2.122,15.48-1.362,22.65.906,3.37,1.069,6.76,5.246,10.87,6.343h12.68c20.02,5.707,47.62,24.66,78.83,15.4,18.47-5.481,31.1-20.749,47.11-28.993,35.25-18.146,71.07-31.742,103.29-52.55q18.12-14.042,36.24-28.087c7.19-4.411,16.31-9.718,23.56-12.684q6.345-1.359,12.68-2.719c7.76-5.108,12.42-12.589,22.65-16.308,15.47-5.618,37.25,1.539,55.27-1.812,25.36-4.716,61.37-9.919,82.45,2.718,21.95,13.157,39.11,38.884,52.55,60.7q4.08,11.325,8.16,22.651c5.81,10.466,14.98,18.017,20.84,28.087q1.8,9.06,3.62,18.121c3.03,8.879,6.47,19.636,9.97,30.8,4.13,13.217,12.88,27.358,16.3,41.678,6.67,27.858-6.03,52.654-.9,79.731,9,47.5,4.01,109.18,8.15,161.27h3.63v171.24h-3.63q-1.815,13.14-3.62,26.28v47.11c-3.57,19.01-4.94,35.24-11.78,50.74q-5.43,6.8-10.87,13.59l-13.59,30.81c-10.6,15.84-26.08,28.16-36.24,45.3-13.53,22.83-17.17,52.66-27.19,78.82-4.11,10.74-13.79,20.94-18.12,32.62q-0.9,7.245-1.81,14.5-8.145,14.94-16.31,29.9c-7.47,19.27-6.57,39.38-15.4,57.08-7.2,14.44-19,27.16-28.09,39.86q-9.96,16.77-19.93,33.53c-10.9,14.3-25.69,26.97-36.24,41.67-11.27,15.71-16.94,34.36-28.09,50.74q-9.06,9.975-18.12,19.93c-15.3,22.49-19.72,51.2-32.62,76.11-9.38,18.14-29.41,32.91-41.67,48.93-8.24,10.75-14.02,21.98-21.75,33.52-6.74,10.07-17.57,18.46-25.37,28.09-13.38,16.53-37.17,26.18-54.36,38.96-10.44,7.75-22.91,18.63-30.8,28.99-4.65,6.11-8.47,13.49-14.5,18.12-16.62,12.74-34.4,22.61-49.83,36.24-7.93,7-18.37,14.74-25.37,22.65-9.21,10.42-17.14,23.14-28.09,31.71q-16.755,12.69-33.52,25.37c-7.11,7.09-12.89,17.52-21.75,22.65-7.5,4.35-15.7,4.74-22.65,9.06q-7.245,5.895-14.49,11.78c-25.17,9.16-49.18,13.9-71.58,25.37q-7.71,6.345-15.4,12.69c-8.51,5.27-20.18,6.18-28.09,11.78-6.15,4.34-9.67,12.31-18.12,14.49-24.6,6.35-59.39,3.62-86.98,3.63q-16.755-.465-33.52-0.91c-17.47-7.99-25.53-33.3-45.31-35.34-13.99,20.99-34.43,7.94-57.98,1.82-0.97-10.48,5.55-13.18,4.53-26.28-9.27-4.98-15.54-16.82-22.65-21.74q-6.345-.915-12.69-1.82c-6.41-3.18-9.15-8.97-14.49-11.77q-5.895-.465-11.78-0.91c-15.92-4.88-34.99-5.66-57.99-5.44-2.67,5.76-24.59,22.46-30.8,25.37-7.1,3.33-19.17-3.29-23.56-1.81-5.63,1.91-9.57,4.53-18.12,4.53a25.939,25.939,0,0,0-14.5-12.68q-3.615-.465-7.25-0.91c-6.24-4.46-23.01-40.83-23.55-48.93-3.47-1.5-8.32-5.13-11.78-6.34-5.22-1.82-11.93,3.68-18.12,1.81-0.77-.23-2.99-3.11-6.34-1.81-3.55,1.38-5.33,3.37-11.78,3.63-5.82-5.6-11.23-12.85-19.03-16.31-1.67,2.17-17.18,13.92-19.93,14.49-7.56-9.32-20.94-11.53-31.71-18.12-5.58-3.41-7.45-14.03-13.59-16.31-3.03,7.93-14.48,9.77-24.47,8.16-3.23-7-8.74-9.79-12.68-16.31-11.36-1.09-18.2,4.55-27.18,7.25-17.17,5.15-51.712-26.79-59.8-34.43,0.823-9.49,8.068-33.49-8.155-33.52-4.865,3.17-18.287,5.66-20.838.9-5.284-8.08,1.388-18.38,1.812-27.18h-3.625c-2.344-4.29-3.747-5.72-3.624-13.59v-7.25c-4.226-2.43-12.485-6.7-15.4-11.78v-6.34a43.655,43.655,0,0,0,23.557-6.34c7.453-4.21,20.332,2.19,26.275-.91,4.192-2.18,7.446.98,9.961-2.71v-0.91c-3.935-2.48-24.458-10.87-24.458-10.87q-6.795-9.51-13.591-19.03c-7.2-5.04-20.445-7.38-25.368-14.5-2.939-3.61-4.371-8.03-4.531-14.49,18.888-10.2,38.959,4.65,57.987,9.06,10.721,2.48,18.411.1,19.031-9.06-0.31-1.21-.61-2.42-0.91-3.63l-13.591-14.49q1.359-9.525,2.718-19.03-3.624-1.815-7.248-3.62c-2.128,1.9-7.122,2.56-9.967,3.62-0.989,7.85,1.59,8.57,2.718,15.4-20.625,1.03-30.693-24.05-58.892-17.21-8.136,1.97-12.241,9.05-20.839,12.68h-29.9c-13.2,2.15-17.626,10.04-34.429,9.97-1.478-2.07-1.761-1.49-2.718-4.53,3.578-3.47,4.288-8.17,3.624-13.59h-2.718c-13.288-5.45-19.9,17.85-34.43,9.06h-0.906c-0.434-7.21,2.062-14.37,1.812-22.65-4.334-2.83-11.716-4.51-13.59-9.97q-0.906-8.145-1.812-16.31c-2.835-1.17-2.221-1.72-5.436-2.72l-23.557-.9c-3.129-.98-28.928-23.23-29.9-26.28-2.785-6.7,4.895-12.15,6.343-18.12,1.715-7.07-.619-15.65-2.718-19.02-13.791-22.18-20.986-6.87-48.02-11.78v-2.72c-0.971-2.55.254-4.59,0.906-8.16,19.219-8.83,16.615-30.42,28.993-47.11,5.762-7.77,23.562-11.12,27.181-24.46,2.984-6.15-6.463-33.05-7.248-38.96-11.656-1.49-26.12-4.63-26.275-18.12h0.906c2.644-5.23,10.583-9.22,11.778-12.69v-7.25c-2.028-5.28-7.306-8.27-8.154-16.3,7.616-4.89,17.872-20.23,19.027-30.81-5.524-3.86-7.876-13.83-15.4-15.4-1.82-.38-2.411,1.66-5.436,1.81-19.014.96-12.628,3.04-22.651,9.97-5.015,3.46-11.357,1.38-15.4,5.43-3.129,3.14-2.692,8.09-5.436,11.78-5.339,7.19-16.057,13.61-21.745,21.75-11.534,16.5-18.086,34.48-28.087,52.55q-10.871,3.165-21.745,6.34-9.058-.915-18.12-1.81c-10.04,3.79-25.506,9.01-32.618,16.31-6.68,6.85-3.143,21.44-8.154,28.08-2.208,2.93-6.162,3.55-8.154,7.25-0.3-.6-0.6-1.21-0.906-1.81-3.241-3.71-17.774-29.31-17.215-31.71,5.8-12.5,18.49-17.86,23.557-32.62v-15.4c-0.6-33.31-26.722-43.81-59.8-44.4l-7.249-19.02c-2.87-13.17,12.032-37.54,9.967-55.27-10.914-5.3-14.153-10.2-31.712-9.06-0.922-12.04-5.991-23.55-9.06-33.53-8.343-27.12-13.3-51.42-20.839-78.82h4.53c7.3,3.58,15.4,1.48,23.557,4.53q5.436,3.615,10.873,7.25c2.935,13.46-.776,15.59-0.906,31.71,3.26,1.93,10.287,2.78,13.59,5.43,10.168,8.19,1.138,25.38,20.839,25.37,6-6.12,16.894-9.96,27.181-9.06,6.612,9.99,27.512,22.37,40.772,26.28,12.083,3.56,26.794,2.16,28.087-9.06v-15.41c1.3-6.35,4.769-9.95,6.342-15.4l-38.959-23.55c-5.074-2.19-9.187.48-12.685-2.72-5.709-5.23-4.386-12.9-9.966-17.22-4.76-3.68-12.54-3.82-16.309-9.96-1.737-2.86-1.492-4.86-.906-8.16,5.107-.89,14.518-6.66,15.4-9.06v-3.62c-3.333-.62-34.292-18.44-35.336-20.84l-0.906-4.53c7.559-3.15,22.286-6.67,26.275-13.59,3.075-3.62,2.7-7.42.906-11.78-10.4-4.93-32.909-13.4-38.959-21.75v-6.34c3.967-.51,4.794-0.62,6.342-3.62-13.823-4.17-34.981-16.22-57.08-10.87-12.172,2.94-24.164,8.3-38.054,9.06-0.066-9.07-6.787-32.98-12.684-34.43v-14.5h3.624v-1.81c3.1-5.8.766-13.17,0-19.93h-3.624v-37.15h3.624c1.735-11.37,3.38-52.46-3.624-54.36v-44.4h3.624q0.906-39.4,1.812-78.83,3.171-16.755,6.342-33.52c0.207-9.39-4.807-19.23-2.718-30.8,2.487-13.776,6.678-32.585,3.624-49.835l-0.906-28.994c9.715-52.771,3.562-126.218,3.625-192.985h0.9V740.2c10.187,11.351,22.245,11.848,39.866,16.309,17.227,4.361,41.727-2.628,41.678,18.12-1.241,1.6-1.269,1.806-1.812,4.531-5.031,1.519-14.48,4.939-16.309,9.966,8.879,1.161,9.968,2.121,18.121,1.812,3.034,6.411,9.661,18.933,16.308,21.745l11.779,0.906,0.906,2.718-0.906.906c-17.008.95-28.738,0.932-46.208,0.906v1.812h0.906c8.256,6.418,21.257,12.2,30.805,15.4,5.787,1.939,13.471-3.9,19.933-.906,12.974,6.02,25.41,14.821,41.678,16.308,0.76,2.764,2.928,4.671,3.624,6.343q0.453,8.152.906,16.308c6.7,5.006,15.771,5.881,22.651,10.873,7.689,5.578,11.538,13.921,17.214,21.744,2.713,3.739,6.777,3.993,9.061,9.061-2.752,1.895-1.76,3.171-5.437,4.53-12.807,6.172-29.181-6.582-47.113-2.718-21.757,4.687-16.825-6.182-33.524-9.966-3-.68-24.054-1.956-24.463-1.813-3.907,1.369-16.425,6.557-21.745,4.531-6.7-2.554-10.584-6.062-20.838-6.343l-0.906,3.625,1.812,2.718c6.446,5.461,14.53,1.382,23.557,5.436,9.154,4.111,17.258,10.432,25.369,14.5l4.53-.906c10.611,3.625,20.433,6.643,28.993,10.873,7.72,3.814,18.4-.081,28.087,1.812,11.085,2.166,26.134,3.361,35.335,6.342l17.215,8.154c8.159,2.706,21.118,3.678,28.087,5.437l36.242,3.624c6.2,2.927,6.567,9.275,16.308,9.966,1.909-2.666,2.435-2.307,2.718-7.248-5.1-2.227-7.262-7.108-7.248-14.5,9.621-8.964,22.456-13.024,37.147-17.214,0.891-4.793,2.477-7.056,0-10.873-14.129-14.361-55.326-17.214-78.825-21.745v-6.342c4.767-2.728,10.776-8.3,16.309-9.966,13-3.921,15.612.176,26.275-6.343q0.453-4.528.906-9.06c10.564-3.913,14.531-8.48,26.275-5.436,1.28-2.646,1.8-2,2.718-5.436-4.068-4.869-19.555-26.517-20.839-29.9q-0.906-9.966-1.812-19.933c-3.7-9.513-15.984-20.682-19.932-28.087-2.525-4.735-.826-8.081-3.625-11.779-3.224-4.26-8.749-4.574-12.684-8.154-3.662-3.331-9.868-21.671-7.248-27.181,1-2.3,1.574-3.25,3.624-4.53,11.759-6.675,35.171,3.888,36.241-13.591-13.061-12.372-13.367-35.327-24.463-49.832-5.931-7.753-29.363-20.983-38.959-25.369-2.605-1.19-13.764-4.395-14.5-3.624-8.879-8.35-33.842-28.891-48.926-28.993-1.648,2.866-2.779,4.348-6.342,5.436-4.253-10.7-25.895-33.661-34.429-38.959-9.056-5.623-19.973-8.077-26.275-16.309h2.718c9.549,6.1,20.118,8.88,28.993,15.4,8.669,6.372,15.977,15.754,25.369,21.744,12.42,7.922,30.455,7.465,43.49,15.4,25.585,15.581,46.3,37.093,71.576,53.456,15.742,10.189,37.2,12.792,53.456,22.651,16.946,10.278,31.857,24.536,48.02,35.335,10.241,6.843,21.377,9.128,32.618,15.4,16.73,9.339,27.263,23.681,41.677,34.429,16.041,11.962,34.492,17.72,54.362,26.275,6.786,2.922,9.666,9.037,19.027,9.967,18.526-22.542,41.967-6.784,67.953-17.215,16.055-6.446,32.725-17.475,48.925-22.651,15.89-5.077,31.8-2.454,46.21-8.154,13.85-5.482,27.81-15.566,43.49-19.027h67.95v0.906c-4.63,4.018-11.7,9.911-13.59,16.309-2.66,9.01,3.02,20.846-1.81,28.993-3.62,6.1-12.05,5.826-14.5,14.5-4.77,16.884,3.77,31.561-8.15,41.678-6.72,3.9-17.77,1.548-24.47,5.436-3.15,1.83-5.35,6.8-8.15,9.061-3.21,2.582-3.81-.081-5.44,4.53-6.99,13.737-2.37,48.479-9.06,58.892-2.59,2.74-4.97,4.036-9.96,4.53-9.57-8.06-14.3-22.042-29.9-22.651C1071.26,908.9,1069.44,908.655,1069.05,915.067ZM516.366,733.86H536.3c1.286,2.918,4.077,5.036,5.436,7.248q0.906,5.889,1.812,11.778c4.323,4.424,33.756,13,41.678,14.5,15.44,2.91,33.605-3.209,44.4,3.624,2.611,2.377,3.331,3.135,3.624,8.155-14.741,5.977-22.109,3.107-34.43-1.813-9.684-3.866-18.57,2.64-27.181,2.719H506.4c-0.792,6.525-3.185,9.248-10.873,9.06-1.351-2.452-1.645-1.431-2.718-4.53v-7.249c7.076-2.662,22.929-6.042,25.369-13.59,3.531-8.087-3.183-20.108-4.53-27.181C516.224,735.287,515.047,736.4,516.366,733.86Zm86.074,74.295c10.191,0.611,30.448,4.787,33.523,12.684v6.342c-2.518,1.927-4.03,6.4-7.248,7.249-3.634.963-7.236-2.867-9.061-3.624-14.4-5.979-21.683-2.694-26.275-20.839H596.1Zm69.764,52.55,6.343,0.906c0.861,2.759,1.324,2.734,1.812,6.342q-0.453.906-.906,1.812H648.647c-2.193-3.417-6.045-4.649-8.154-8.154Zm1770.4,42.583c-12.75,7.622-22.89,3.021-22.65,19.933,6.92,3.685,3.5,26.459,19.93,26.275,1.3-1.923,1.56-1.655,3.62-2.718V935c5.95-3.564,9.08-8.448,16.31-11.779,0.83-5.141,1.74-12.4-.9-16.308-1.95-1.977-1.76-2.09-5.44-2.719ZM606.064,988.456l-0.906,2.718c4.217,0.173,4.588.757,7.248,1.812,1.113-1.8,1.36-1.428,2.718-2.718C611.638,989.414,610.913,988.643,606.064,988.456Zm125.033,0c-1.714,3.939-5.6,6.068-4.531,9.966,5.255,12.638,27.982,32.068,44.4,31.708,1.16-2.01.915-1.49,2.718-2.71,1.012-6.78,2.7-11,2.718-19.94C759.306,1001.32,757.31,988.481,731.1,988.456Zm106.912,62.514h5.436l2.718-4.53c-1.208-.6-2.416-1.21-3.624-1.81-1.867,3.26-4.15,5-9.061,5.44-2.271-5.76-5.863-14.94-10.872-18.12-4.2-2.67-9.921-1.61-12.684-5.44-4.331-6-2.24-11.8-9.967-14.5l-2.718-.9c-1.751,3.13-2.566,3.68-2.718,9.06,2.108,1.64,1.435.95,1.812,4.53-1.749.87-21.524,8.76-21.745,9.06l-4.53,14.49c-3.433,3.67-8.1,3.51-9.966,9.06,19.8,8.87,55.861,45.5,79.731,42.59,1.529-3.61,2.616-4.05,2.718-9.97C834.8,1084.29,837.712,1062.18,838.009,1050.97Zm-214.731-36.24v2.72H626.9c6.139,3.91,13.282,4.2,21.744,3.62v-2.72C640.511,1015.65,633.82,1014.84,623.278,1014.73Zm1683.412,62.52c-0.3,1.2-.6,2.41-0.9,3.62,1.81,0.3,3.62.61,5.43,0.91,3.4,1.7,11.32.04,15.4-.91v-2.72h-1.81Zm155.84,12.68c-0.91.3-1.81,0.61-2.72,0.91-4.07,23.69-18.6,33.48-16.31,63.42h1.82c1.2,0.3,2.41.6,3.62,0.91,8.57-15.95,20.97-40.32,16.31-65.24h-2.72Zm-248.25,21.75c-9.05,3.93-26.76.26-29,10.87,30.09,16.86,67.41-1.55,96.95,7.25,2.83-4.25,7.32-5.31,9.06-10.88C2265.17,1115.33,2242.84,1111.85,2214.28,1111.68ZM515.46,1155.17c-7.9,3.58-16.345,1.96-22.651,6.34l-0.906,5.43c16.5,9.87,44.294,24.37,70.671,9.97,1.976-1.94,2.089-1.75,2.718-5.44-0.3-.6-0.6-1.2-0.906-1.81C552.48,1163.18,536.788,1155.1,515.46,1155.17Zm1699.72,5.43-0.9,3.63,5.43,0.9v-2.72Q2217.445,1161.51,2215.18,1160.6Zm281.78,20.84c-12.9,8.62-21.54,6.64-20.84,29.9q2.265,4.98,4.53,9.97l4.53,0.9c6.71-10.04,28.85-14.52,31.71-23.55,3.02-5.47-1.72-13.43-5.43-15.41C2508.49,1181.01,2502.44,1181.25,2496.96,1181.44ZM533.581,1202.28c-0.979,3.09-1.685,4.37-1.812,9.06,5.328,4.32,6.291,13.27,13.59,15.4,14.572,8.62,29.917-6.46,47.114-3.62,20.269,3.34,41.685,16.11,67.953,9.06v-0.91H659.52c-5.333-9.16-18.732-11.87-29.9-15.4-15.087-4.77-34.171-10.09-50.738-13.59-7.263-1.53-14.747,1.67-19.933,2.72C548.62,1207.08,541.143,1202.86,533.581,1202.28ZM2195.25,1371.71c10.14-.38,13.04-5.48,20.84-7.25,12.41-2.81,15.94,5.55,25.37,6.34,3.03-3.35,5.46-2.44,6.34-6.34,7.07-11.72,3.34-38.99,20.84-39.87,5.02,8.85,6.7,26.97,19.93,27.19,5.1-5.86,13.57-9,19.93-13.59q6.8-7.26,13.59-14.5,9.525-.45,19.03-0.91c18-26.47,38.58-40.67,24.46-87.88-15.69-2.13-19.1-12.7-30.8-16.31l-38.05.9c-10.11-2.13-41.95-15.98-53.46-3.62-2.46,2.64-2.13,14.27-5.44,18.12-4.45,5.18-8.6,4.51-9.06,14.5,0.3,0.6.61,1.21,0.91,1.81,5.41,1.28,16.64,6.35,19.03,10.87,1.26,1.89,1.51,3.15,1.81,6.34-5.08,4.56-14.23,25.79-19.94,26.28-0.3-.3-0.6-0.6-0.9-0.91v1.82c-7.07,12.63-.24,34.99-8.16,46.2-6.24,8.84-21.56,13.72-25.36,24.47Q2195.695,1368.535,2195.25,1371.71Zm-1200.5-30.81c-1.208.61-2.416,1.21-3.624,1.82-0.854,8.45,2.068,8.52,6.342,13.59,0.906-.31,1.812-0.61,2.719-0.91v-9.06C998.857,1343.19,998.126,1342.15,994.753,1340.9Zm-21.745,45.3v1.82c-4.641.08-7.181,0.81-9.06,3.62-6.281,8.53,3.9,15.16-6.343,22.65l-22.651,3.63c-6.027,2.18-9.224,7.04-14.5,9.96q-9.513.45-19.027,0.91c-6.157,1.4-23.147,5.57-28.087,9.06,0.3,0.6.6,1.21,0.906,1.81,5.765,7.46,16.826,5.69,17.215,19.03-2.983,2.14-4.124,2.79-9.967,2.72-7.537,3.41-18.992,5.37-28.087,3.62q-7.7.45-15.4,0.91v5.43c5.4,1.66,8.076,4.75,8.154,11.78-4.981,2.58-11.633,13.39-12.685,21.75,1.276,1.35.946,1.6,2.719,2.71q17.212-1.8,34.429-3.62,9.513-3.165,19.027-6.34c23.148-5.03,50.971.35,66.14,6.34,12.345,4.87,25.212,7.41,35.336,14.5,20.411,14.28,41.611,51.92,53.451,75.2,7.65,15.03,14.68,31.67,19.03,48.02,3.28,12.31,4.31,30.43,17.22,32.61,0.6-1.2,1.2-2.41,1.81-3.62,1.93-7.56,2.36-46.97-1.81-54.36-3.75-6.64-8.97-13.67-12.69-19.93q-1.815-8.61-3.62-17.22c-5.68-10.83-12.43-19.77-19.03-29.9q-0.45-2.715-.91-5.43c-0.9.3-1.81,0.6-2.71,0.9-10.92-10.43-26.07-28.89-31.71-43.49-3.25-8.4-4.97-18.23-6.35-26.27q0.465-9.975.91-19.94c-2.31-13.3-10.686-34.24-16.309-46.2-2.653-5.65,1.145-12.73-1.813-17.22-1.381-2.1-4.074-2.85-5.436-5.44h-8.154Zm-570.8,12.69c5.634,1.8,8.217,3.45,9.06,9.97l0.906,5.43a14.477,14.477,0,0,0-4.53,6.34c-0.3-.6-0.6-1.2-0.906-1.81C403.66,1414.23,402.73,1405.75,402.206,1398.89Zm689.494,23.56c-2.41,3.07-4.77,1.97-6.34,6.34v6.34c5.62,2.75,6.29,6.15,15.4,6.34,1.81-5.01,4.15-5.52,4.53-12.68-1.6-1.17-1.69-1.71-3.63-2.72Q1096.68,1424.255,1091.7,1422.45Zm-7.25,56.17c-1.67,3-2.43,3.19-2.72,8.16,2.74,2.48,1.12,5.51,5.44,8.15,1.21,0.3,2.41.6,3.62,0.91,2.18-3.92,2.88-7.49,2.72-14.5-2.01-1.16-1.5-.92-2.72-2.72h-6.34Zm-591.641,13.59c3.02,0.3,6.041.61,9.061,0.91,5.044,7.7,15.852,12.12,19.932,19.93-3.266.78-2.625,1.2-6.342,1.81-4.152-5.15-25.785-2.8-33.523-3.62a20.229,20.229,0,0,1-1.812-9.06c2.286-1.65,2.233-3.8,4.53-5.44Zm407.716,21.75c-6.644,3.49-17.407.75-25.369,3.62-21.945,7.91-48.349,38.13-57.08,59.8q-0.453,6.345-.906,12.68c-22.152,73.78,15.882,149.47,63.422,174.87,12.125,6.47,35.692,15.82,57.081,10.87,33.519-7.76,71.587-24.33,87.887-49.83,6.76-10.59,5.04-22.08,9.06-36.24,23.47-82.7-39.69-153.92-96.947-173.06Q919.1,1515.32,900.525,1513.96Zm659.595,32.61c-3.91,2.05-9.39,5.39-12.69,6.35-6.09,1.77-11.5-.64-16.3,1.81-30.74,15.68-49.4,33.91-65.24,64.33-8.38,16.08-10.03,57.91-6.34,77.01v16.31c16.88,60.24,90.56,111.01,176.68,89.7,4.79-1.19,9.67-4.9,13.59-6.35l9.96-.9c32.53-11.25,73.66-50.47,84.26-80.64,10.86-30.89,10.08-71.28-6.34-95.13C1712.07,1581.83,1625.58,1546.43,1560.12,1546.57Zm-1051,95.14c-1.683,2.37-1.981,1.54-2.718,5.43,2.646,1.28,2,1.8,5.436,2.72,2.48-2.7,4.7-4.46,6.342-8.15h-9.06ZM1777.57,1656.2c-5.38,8.7-5.17,17.99-9.06,29.9-3.44,10.52-8.86,22.16-13.59,33.53-19.05,45.7-71.18,88.56-125.94,99.66-31.48,6.38-96.57-6.7-117.79-14.5-19.67-7.23-36.27-18.2-59.8-9.06-4.09,7.97-11.12,32.6-4.53,43.49,5.35,10.37,13.28,3.06,25.37,8.16,12.5,5.26,28.59,6.43,41.68,12.68q5.895,0.45,11.78.91c21.11,8.47,68.75,22.89,93.32,12.68,3.93-1.63,6.01,2.63,11.78,0h19.93c5.3-1.09,13.26-1.89,19.03-4.53,40.21-18.4,91.69-58.86,115.97-93.32,16.82-23.87,19.65-59.03,11.78-89.7-2.66-10.34.94-22.41-8.15-26.27A22.011,22.011,0,0,0,1777.57,1656.2Zm44.39,6.35c-8,31.01,58.49,50.54,79.73,59.79,9.94,4.33,23-4.69,25.37-9.06,0.3-2.41.61-4.83,0.91-7.24-8.61-6.82-14.35-17.27-23.56-23.56C1895.1,1676.12,1837.44,1662.51,1821.96,1662.55Zm-697.64,87.88h-3.63c-4.59,8.92-13.07,17.81-22.65,21.75-1.75-2.23-5.93-2.95-9.06-3.63q-3.165-5.43-6.34-10.87c0.99-7.72-2.15-27.82-11.78-28.99-2.45,3.47-1.33,5.99-3.62,10.87-4.52,9.62-11.7,7.68-11.78,21.74,12.21,8.27,11.84,46.02,1.81,57.99-6.89,8.22-14.35,11.41-15.4,26.27,8.33,4.43,2.77,18.57,6.34,29,0.98,2.85,3.76,5.66,5.44,9.06,3.17,6.42-4.48,9.3-2.72,16.31,1.64,6.55,7.48,16.04,3.62,26.27-4.97,13.2-16.01,46.43-9.97,68.86,5.11,18.95,34.74,27.81,49.84,38.05,13.92,9.46,22.58,30.78,32.61,44.4q11.325,9.51,22.65,19.03,3.63,5.43,7.25,10.87c-0.47,9.03-8.17,12.65-6.34,20.84,1.89,8.45,10.46,7.3,10.87,19.93-3.53,2.73-13.39,11.01-10.87,13.59,1.37,3.41-.27,1.85,3.62,2.72,3.8,5.21,23.72,3.23,30.81,8.15,8.99,6.25,18.73,16.35,28.99,19.03,10.13,2.65,13.36-8.02,23.56-6.34,16.77,2.76,36.43,9.62,54.36,8.15,1.75-3.71,3.02-2.67,3.63-8.15-15.18-15.19-29.61-29.3-57.08-28.09q-1.365-1.815-2.72-3.62c3.58-2.51,5.43-10.43,5.43-16.31-7.57-4.83-12.43-12.66-19.93-16.31-6.86-3.34-16.11-1.11-19.93-7.25-4.68-6.56,1.58-13.08,3.62-18.12q2.715-10.875,5.44-21.74l18.12-21.75c5.04-6.48,11.49-6.6,19.03-10.87,11.34-6.43,26.73-16.04,34.43-26.28,10.59-14.08-6.35-39.97-1.82-46.2,3.99-5.49,12.88-7.41,18.12-11.78,10.16-8.46,19.66-34.54,17.22-52.55-4.61-3.5-6-7.25-13.59-8.16-10.59,5.38-25.93,3.2-37.15,9.97-4.15,2.51-14.87,15.26-16.31,19.93-2.01,6.53,1.06,13.36-1.81,18.12-9.08,15.07-25.52,16.25-33.52,26.28q-2.265,8.61-4.53,17.21c-10.18,5.21-22.71,11.65-34.43,14.5-36.8,8.93-67.84-21.33-83.36-38.05-0.16-32.35,36.67-63.77,29.9-100.57-8.31-3.45-24.7-15.9-20.84-30.81q3.63-7.7,7.25-15.4c2.48-9.9-1.35-18.66,2.72-27.18C1116.92,1775.43,1124.06,1775.96,1124.32,1750.43Zm-324.365-16.31c-1.5,3.89-2.763,6.43-2.718,14.5,4.329,5.85,19.511,31.78,23.557,34.43,9.37,6.13,17.614,9.69,26.275,14.5,0.954,5.73,3.78,6.57,5.436,9.96,2.832,5.8-2.716,12.54-1.812,18.12h1.812c4.738,2.88,12.068.98,18.121,0,1.992-4.72,5.744-8.07,12.684-8.15,1.568,2.33,4.794,4.06,7.249,5.43q0.453,4.995.906,9.97c6.348,2.03,5.3,6.77,9.966,9.97,19.228,13.25,45.374-4.65,63.423-5.44,5.719,8.15,26.7,14.29,38.956,7.25,17-9.77,33.96-29.94,29.9-57.99-7.25-3.01-9.87-11.42-17.21-13.59l-31.714,3.63c-28.165,6.13-58.089,25.84-96.945,16.3-22.3-5.47-40.065-16.19-55.268-28.99C821.868,1755.01,816.271,1737.05,799.955,1734.12Zm1175.125,35.34-6.34.9c-4.86,10.73-15.42,13.19-13.59,29,14.23,4.44,19.05,14.93,29.9,23.55,5.66,4.51,19.9,7.4,26.27,9.97,8.51,3.43,47.28,7.09,59.8,3.62,0.95-.26,13.14-2.82,16.31-1.81,4.49,1.44,9.95,5.89,13.59,8.16,3.05,1.9,22.15,4.31,24.46,1.81,6.66,4.74,14.79,6.54,22.66,8.15,6.64-7.76,20.07-7.43,20.83-22.65-11.59-6.44-26.27-11.62-36.24-18.12-4.95-3.23-9.9-8.73-15.4-11.78-9.1-5.03-21.46-2.7-31.71-7.25-9.39-4.16-20.37-11.46-29.9-15.4-2.08-.86-28.96,6.75-38.96,1.81C2000.94,1771.61,2001.06,1769.48,1975.08,1769.46Zm-593.45,9.96c-7.78,9.28-7.46,19.5-5.44,32.62,2.58,0.68,3.27,3.58,9.97,3.63,1.16-2.02.91-1.5,2.72-2.72,1.32-10.1.44-25.71-3.63-33.53h-3.62ZM1013.78,1880.9c-7.13,10.41-27.258,25.63-28.994,39.87,3.616,1.97,3.035,3.28,9.061,3.62l22.653-4.53q9.06-8.61,18.12-17.21c-0.3-.61-0.61-1.21-0.91-1.82C1029.6,1892.1,1021.47,1886.24,1013.78,1880.9Zm-408.622,46.21c17.222-.18,19.916,4.68,29.9,9.06l29.9,0.9c6.316,11.37,22.041,17.09,27.181,26.28,4.25,7.6-1.428,17.41-1.812,27.18,7.154,2.43,8.521,8.08,13.59,11.78,5.8,4.23,39.429,7.58,49.832,9.97,22.18,5.08,26.69-10.99,49.832-.91q0.453,2.715.906,5.44c-7.255,6.09-9.386,11.62-9.966,23.55,5.521,2.43,9.246,8.05,11.778,13.59-12.118,7.75-21.077,19.99-40.771,19.94l-1.812.9v2.72h16.308c4.2,1.83,28.607,16.83,28.994,18.12-9.612,6.53-21.081,19.06-19.027,34.43,6.387,0.88,18.948,6.93,19.933,13.59-0.3.91-.6,1.81-0.906,2.72-5.414,1.98-28.584,18-28.994,24.46q6.342,0.45,12.685.91c8.469-5.48,30.387-7.9,29.9,9.06-1.4,1.28-2.184,9.15-2.718,13.59-12.719,1.9-19.036,11.38-29.9,13.59-11.258-15.14-35.055-24.41-49.832-36.24-7.265-5.82-10.633-16.98-16.309-24.47-4.814-6.34-13.247-8.96-19.933-13.59-10.821-7.49-15.681-22.96-23.556-33.52a177.6,177.6,0,0,0-19.027-20.84c-8.461-7.91-22.85-10.75-29.9-19.93-2.765-3.6-1.822-7.56-4.53-11.78s-10.575-7.23-13.591-11.78q-4.983-14.94-9.966-29.9c-4.449-10.99-28.035-55.1-20.839-67.95C586.139,1931.49,601.363,1931.03,605.158,1927.11Zm711.242,63.42c-4.28,3.12-10.07,4.58-14.5,7.25-0.44,25.02-4.97,36.78-7.25,56.17-4.98.98-7.28,1.97-8.15,7.25,1.92,1.3,1.65,1.56,2.71,3.63,11.48,0.89,19.05,5.73,29,8.15,5.04,1.23,11.21-.94,13.59-1.81h23.55c9.58-2.44,25.77-9.47,26.28-23.56-6.63-3.21-8.58-6.42-19.93-6.34-3.37,5.85-9.15,10.19-19.03,9.96-4.12-3.28-7.16-6.44-10.87-9.96q-0.915-5.445-1.81-10.87c3.9-1.71,6.17-4.85,8.15-7.25l27.18,0.9c6.78-10.67,21.45-14.53,30.81-22.65-0.31-.6-0.61-1.21-0.91-1.81-1.57-2.12.16-.76-2.72-1.81C1375.5,1989,1345.29,1990.33,1316.4,1990.53Zm-639.666,53.46-6.342.9c-0.862,2.76-1.324,2.74-1.812,6.34,0.3,0.61.6,1.21,0.906,1.82,2.365-1.68,4.815-2.79,6.342-5.44C676.13,2046.4,676.432,2045.19,676.734,2043.99Zm355.166,18.12c-2.42.9-4.83,1.81-7.25,2.72-0.3.6-.6,1.2-0.9,1.81l4.53,9.96c6.72,6.95,19.24,11.64,31.71,9.97v-1.81l0.9-3.63C1052.97,2072.63,1048.57,2062.02,1031.9,2062.11Zm304.43,42.58v3.63h2.72l0.9-3.63h-3.62Zm-15.4,2.72c-1.17,1.73-1.03.9-1.82,3.62h6.35v-2.71C1323.95,2108.01,1322.44,2107.71,1320.93,2107.41Zm-220.17,46.21c-1.21.6-2.42,1.2-3.63,1.81-8.53,3.14-19.6,24.02-12.68,35.33v0.91c7.76,0.34,14.85,1.79,24.46,1.81,2.86-6.42,10.18-24.3,18.12-25.37,1.35,2.85,3.03,3.78,5.44,2.72,4.94-.84,11.62-5.11,12.68-9.96C1132.98,2155.44,1118.99,2153.62,1100.76,2153.62Zm244.63,55.26v-3.62c-7.95-3.14-15.04-8.96-22.65-10.87-7.58-1.91-12.45,1.17-18.12.9-1.01,2.61-1.43,2.46-1.82,6.35,6.61,3.71,7.99,6.52,19.94,6.34C1329.82,2212.1,1335.97,2209.45,1345.39,2208.88Zm-223.79-10.87v3.63h2.72c1.16-1.6,1.7-1.69,2.71-3.63h-5.43Zm-297.182,6.34h5.436c5.158,6.88,14.1,5.06,14.5,17.22-3.208,7.4,6.345,15.81,5.436,25.37-2.1,1.21-2.109,2.05-3.624,3.62-11.607-9.78-30.912-12.25-37.147-27.18h0.906c3.065-5.67,10.373-6.25,12.684-12.68C823.21,2208.58,823.814,2206.47,824.418,2204.35Zm558.122,193.9h-4.53v-3.63h-1.82c-13.2-5.89-28.91-3.14-38.05-12.68-1.72-1.79-9.8-8.46-7.25-10.87-2.5-3.27-4.18-10.7-.9-15.41,1.25-1.8,6.22-5.37,8.15-6.34q8.61,1.365,17.21,2.72c13.62,6.03,29.37,3.12,40.78,9.96,0.69,4.38,1.71,6.02,1.81,11.78-3.65,1.94-9.78,6.24-11.78,9.97C1383.94,2387.64,1382.97,2392.88,1382.54,2398.25Z" data-name="Color Fill 3" class="colord2d2dd svgShape"></path><path fill="#5bb9ae" fill-rule="evenodd" d="M434.823,522.754v3.624c35.475,15.992,68.985,32.459,99.664,53.456,10.381,7.105,17.653,30.731,31.711,35.335,1.842-4.555,4.125-5.653,10.873-5.436,3.883,4.181,11.859,9.472,16.308,12.684l9.967,1.813c5.266,3.438,10.117,10.611,15.4,14.5,1.472,1.082,7.725-.072,11.779,1.812A205.571,205.571,0,0,1,668.58,664.1c11.639,9.322,10.722,27.606,18.121,41.678,3.255,6.189,9.506,7.324,9.966,17.214-9.9,5.3-24.607,4.952-38.053,8.155-0.8,2.932-1,2.835-2.718,4.53-0.007,25.273,15.435,25.063,23.557,38.959q0.452,4.077.906,8.155c3.9,7.379,16.215,18.592,19.932,28.087q0.906,9.964,1.812,19.933c3.931,10.725,18.165,18.107,20.839,32.617-2.305,1.265-2.443,1.864-5.436,2.718-4.782-6.644-22.968,2.727-23.557,9.966q-0.906,2.265-1.812,4.53c-9.988,10.44-41.014,1.4-41.678,22.651h1.812c6.384,2.976,10.413-.222,17.215,1.812,7.949,2.378,29.618,10.775,36.241,10.873l10.873-.906c4.944,2.143,8.86,7.231,13.59,9.966,0.648,4.572.981,8.44-2.718,10.873-10.77,7.932-28.414,4.36-34.429,17.214-3.789,8.165,5.367,12.143,6.342,19.933-2.885.906-3.2,1.473-7.248,1.812-15.458-15.633-42.949-10.5-69.765-17.215-8.372-2.1-16.151-7.234-23.557-9.966-8.875-3.274-24.45-3.973-35.335-6.342-9.863-2.147-19.972,1.69-28.087-1.812-12.186-5.259-31.2-8.413-42.584-13.591-5.129-2.333-11.025-8.217-16.308-10.872-6.206-3.118-17.18-1.711-24.463-5.436l-0.906-5.437,8.154-.906c18.1,11.084,35.374-1.824,59.8,3.625,9.035,2.015,12.178,9.636,19.027,12.684,6.932,3.085,14.476-2.657,21.745-2.718,17.562-.148,27.112,4.65,42.584,2.718q1.357-3.171,2.718-6.342c-7.531-4.87-10.754-13.029-16.309-19.933-7.431-9.235-22.071-14.767-33.523-19.933,0.066-8.076.838-19.085-3.624-22.651l-11.779-.906c-9.729-4.674-21.37-13.3-33.523-16.308l-16.309,1.812c-10.915-3.6-20.731-10.339-31.711-15.4v-1.812h13.591c8.453-4.051,22.979,3.416,32.617-1.812l0.906-2.718-0.906-.906c-8.508.441-15.192-.3-18.121-5.436-3.645-6.416-5.867-15.762-15.4-16.309-1.178,1.527-11.213-.365-12.684-4.53l16.309-7.248c0.733-4.225,1.7-6.219,1.812-11.779-5.674-3.566-13.551-6.485-19.933-9.966l-21.745-.906c-15.221-3.618-38.991-3.791-40.771-20.839q0.452-1.359.9-2.718c12.016-3.22,24.119-3.523,39.866,0,8.386,1.876,16.83-1.455,21.745-2.718l35.335-.906,14.5,1.812c8.486-2.432,9.54-9.9,22.651-9.967,8.208,10.789,27.437,10.408,40.771,16.309,3.729,1.65,8.079,6.585,11.779,8.154,8.178,3.47,26.467-7.19,27.181-12.684-3.709-2.144-6.468-7.723-8.155-11.779,6.29-3.539,9.392-13.218,8.155-21.745-6.547-3.346-30.222-13.994-43.49-9.966-2.98.9-8.382,5-11.778,6.342l-25.369,1.812c-21.155,9.148-54.269,14.393-76.107,1.812q-0.453-2.716-.906-5.436c1.32-1.283.911-.692,1.812-2.718,12.707,1.886,32.595-3.449,41.677-9.06l0.906-5.437c-11.749-.071-21.557-6.887-27.181-9.966-8.169-4.472-17.183-.691-26.275-4.53-5.537-2.338-11.831-6.746-16.308-9.06-6.564-3.393-11.063.219-12.685-8.155v-4.53c6.666-1.29,8.069-5.742,13.591-7.248,13.339-3.638,38.261,5.623,45.3,9.06,3.008,1.469,28.087,5.436,28.087,5.436,3.645,3.069,8.886,9.646,12.684,11.779l19.933,0.906c7.535,3.447,12.5,11.454,23.557,11.778v-1.812s-3.5-31.987-4.53-36.241c-13.813-4.16-24.509-17.531-36.242-24.463-9.919-5.861-25.472-2.627-36.241-7.248-17.377-7.458-31.559-15.5-44.4-22.651-13.344-7.44-26.142-.143-28.993-18.121,5.019-4.093,2.094-13.241,6.342-18.121,1.886-2.165,5.7-1.7,7.248-4.53C424.464,529.81,420.026,522.756,434.823,522.754ZM1475.86,1006.58h-3.63q-4.065-5.9-8.15-11.782c-3.23-10.18,3.95-54.044,6.34-67.047V876.107c3.34-21.077,6.27-40.367,9.97-59.8,5.45-28.673-7.44-47.037-7.25-72.483-4.08-3.077-13.2-7.906-15.4-12.684h10.87c9.02,5.442,19.68,8.916,33.52,9.06,0,0,8.13,29.11,10.87,32.617,5.25,6.715,15.76,10.61,19.94,18.121,7.49,13.48,5.51,23.289,17.21,32.617,13.81,11.006,43.57,18.961,48.93,37.148,3.44,6.675.92,19.75,0,25.369-4.5,1.629-5.32,3.348-11.78,3.624-1.95-3.109-4.78-2.974-9.97-2.718-1.72,3.873-4.48,4.458-6.34,7.248-2.47,3.714-1.29,16.082-4.53,19.027-4.37,6.858-11.77,3.952-12.68,14.5-2.63,4.8-2.15,18.117,0,21.745,1.18,2.349,1.3,2.414,3.62,3.624,6.95,4.726,11.52-3.139,18.12-1.812,1.73,0.347,7.25,3.1,9.97,3.624l19.93-.906,21.75,7.249c4.5,8.623,8.65,23.623,11.77,31.711,5.72,2.606,9.63,7.294,17.22,8.154,8.27,0.93,12.99-6.747,20.84.91,2.7,2,7.09,20.73,5.43,25.37-3.81,10.68-3.38,18-6.34,32.61v23.56c-1.29,3.47-4.41,18.39-1.81,24.46,2.1,4.91,4.56,6.6,4.53,15.4-9.32,6.07-9.71,18.2-16.31,27.19-9.73,13.25-25.87,25.57-36.24,41.67-3.85,5.98-3.95,13.64-9.06,18.12-5.81,5.1-13.82,6.81-19.93,11.78-5.96,4.85-9.46,16.48-18.12,18.12-3.4,1.17-11.5-.7-15.41,1.82-2.97,3.9-19.18,29.2-21.74,29.89-7.02-5.71-14.65,1.24-21.75,3.63-1.62,10.42-27.71,49.03-41.67,48.92-1.58-2.11.16-.76-2.72-1.81-2.02,4.84-6.38,9.93-9.06,14.5-2.97,5.05-5.69,21.67-7.25,27.18-4.81,16.92.69,39.15-7.25,53.46-4.46,8.02-10.35,12.83-19.03,18.12-0.67.41-1.98,3.1-2.71,0.9-5.33,9.89-18.86,36.58-10.88,55.27,1.99,4.66,5.04,10.66,6.35,16.31,3.65,1.77,13.74,5.04,15.4,10.87q2.715,7.71,5.43,15.4,4.53,0.465,9.06.91c12.84-7.6,24.22-11.37,32.62-20.84,5.55-6.25,5.28-17.29,10.87-23.55,4.42-4.95,10.14-7.57,16.31-11.78,4.25-2.9,6.55-9.59,10.88-12.69,11.09-7.93,26.54,3.8,33.52,8.16,3.06,1.91,21.45-2.48,29.9.9,4.96,1.99,19.6,6,25.37,10.88,4.83,4.08,8.68,10.52,13.59,14.49,3.99,3.23,10.83,2.87,13.59,7.25,0.3,0.91.6,1.81,0.9,2.72q-3.615,2.715-7.24,5.43,0.45,2.73.9,5.44c5.99,0.83,13.83,4.62,17.22,3.62,2.11-1.64,1.13-.28,1.81-3.62-4.25-1.58-6.22-3-6.34-9.06,0.3-.3.6-0.6,0.9-0.91,18.77-1.93,33.78,3.06,35.34,20.84-8-.67-16.09-3.46-21.75-2.72v1.82c8,2.46,7.83,7.12,19.03,7.24,5.27-7.33,24.84-2.93,29.9.91,1.7,2.11,2.16,2.82,2.72,6.34-5.29,2.66-11.82,5.91-11.78,15.41-44.87-2.43-63.96-46.8-121.41-35.34-17.68,3.53-39.16,4.37-53.46,11.78l-9.96,9.06c-7.26,4.93-15.89,6.6-22.65,11.78-5.72,4.38-7.49,16.79-11.78,22.65-13.53,18.5-30.11,37.94-42.59,57.08-7.43,11.39-11.07,24.06-19.02,34.43-6.05,7.89-16.07,6.96-24.47,12.68-5.23,3.57-9.57,13.07-13.59,18.12-3.79,4.78-11.49,6.98-15.4,11.78-10.86,13.35-14.11,28.66-19.03,48.93-7.02-.53-9.12,5.04-19.02,5.43-5.67-6.5-14.57-15.48-17.22-24.46-5.29-17.91,6.42-31.64,2.72-47.11-3.18-13.32-9.68-21.17-8.15-38.96,7.02-3.99,5.02-9.88,17.21-9.97,0.61-.3,1.21-0.6,1.81-0.9,2.56-7.96,9.6-16.52,12.69-23.56v-0.91s-0.32-44.72-1.81-48.02c-5.26-11.62-19.51-21.06-19.94-36.24,3.12-2.37,3.88-11.99,2.72-18.12q-0.45-8.16-.9-16.31c-2.03-4.61-7.09-10.2-9.06-14.49-2.09-4.56.28-12.85-3.63-15.41h-5.44c-1.09,1.94-1.46,3.04-3.62,3.63q-5.9-.915-11.78-1.82c-6.02.8-7.49,4.92-14.49,5.44q-5-2.715-9.97-5.44c-7.43-7.44-6.52-22.31-15.4-30.8q-4.08.45-8.16,0.91c-6.52,10.05-16.83,17.28-20.84,28.08-4.76,12.83,7.11,34.13-7.24,37.15-0.61-.3-1.21-0.6-1.82-0.91-0.75-5.09-3.74-6.89-4.53-10.87-1.09-5.54,4.63-19.86,5.44-26.27,0.15-1.23-5.31-25.48-6.34-29.9-2.33-9.95-.56-23.55-9.06-25.37q-4.53-.915-9.06-1.81c-3.84-11.62-20.46-33.84-29-41.68h-1.81c-5.22,12.56-21.24,31.87-28.09,38.96-8.55-.14-14.08-3.46-19.93-6.34-2.44-10.95-15.62-35.93-28.09-36.25-1.45,3.77-3.43,5.7-8.15,6.35-0.6-.31-1.21-0.61-1.81-0.91v-7.25c2.9-2.68.43-8.35,2.72-11.78,1.3-1.95,5.42-4.63,7.24-6.34-0.14-9.25-4.12-43.42-7.24-51.64,4.13-1.45,6.5-1.95,7.24-7.25q-0.9-2.265-1.81-4.53c-6.92-1.62-8.04-7.19-11.78-11.78-3.22,1.61-2.82,2.77-7.24,3.62-3.95-5.84-14.45-7.47-24.47-7.24-3.85-7.05-6.8-9.37-8.15-20.84,2.53-.43,2.02-3.84,1.81-9.06q-3.63-15.855-7.25-31.71c1.88-9.6,6.09-16.18.91-27.18-12.84-27.29-44.317-35.93-59.8-60.71-5.259-8.42-5.076-17.87-11.778-24.46v-2.72c-13.441-13.81-46.834-13.82-57.986-31.71-1.754-2.87-1.905-6.91-1.812-11.78,4.713-5.02,13.048-10.29,15.4-17.21,2.7-7.94-1.85-15.1,2.718-21.75,4.717-6.87,11.471-9.36,13.591-17.214,3.967-14.691-7.337-26.787,0-38.959,4.2-6.974,17.5-15.705,19.027-19.027,1.563-3.409,5.59-31.895,2.718-38.054-5.477-11.746-10.871-41.172-17.215-48.926-5.42-6.625-10.858-9.384-10.872-21.744-0.792-3.971-1.305-5.952,4.53-6.343,14.681-5.892,24.365,11.207,31.711,16.309,10.3,7.151,27.062,8.91,36.241,17.214,7.147,6.465,23.686,33.661,32.616,35.336,3.33,1.25,20.72-8.141,28.09-5.436,13.77,5.056,9.15,24.976,20.84,27.181v-5.436c3.8-2.32,3.55-4.134,9.96-4.531,2.4,3.328,8.28,3.368,10.88,6.343,7.43,8.509,6.46,22.222,24.46,11.778,1.09-9.073-.31-22.58,1.81-33.523q3.18-14.043,6.34-28.087c6.48-2.3,8.52-7.987,13.59-10.873q12.69-2.718,25.37-5.436a72.714,72.714,0,0,0,7.25-20.839c1.74-8.316-2.63-15.84.91-23.557,3.08-6.738,12.08-7.746,14.49-14.5,4.3-12.014-2.18-24.259,4.53-33.524,7.74-10.665,20.91-9.468,31.72-17.214,1.5-1.082,1.55-3.758,3.62-4.53,7.38-2.758,16.1,2.519,20.84,3.624,11.13,2.592,19.43-3.724,31.71-3.624v1.812h-0.91l-23.55,12.684c-14.89,11.34-34.45,44.845-40.77,64.329-3.46,10.627-.02,24.557-3.63,36.241-4.52,14.637-13.62,28.625-18.12,45.3-2.7,10-4.28,37.6-9.97,43.49-3.09,4.206-8.85,4.844-9.96,9.06l0.9,1.812c-7.57,1.454-7.16,9.955-11.77,17.215-6.71,10.555-36.63,23.463-37.15,36.241-8.39,1.932-16.8,7.122-26.28,9.062-14.43,2.96-24.76-4.21-35.33-6.34-19.38-3.92-35.14,11.31-39.87,22.65-2.99,7.17-2.93,23.56,0,30.8q8.16,13.59,16.31,27.18,9.96,21.3,19.93,42.59c5.72,12.47,15.45,21.66,22.65,32.61q11.325,20.385,22.65,40.78,10.425,14.04,20.84,28.08c24.29,39.08,44.27,79.73,70.67,115.98,18.95,26,28.03,55.14,68.86,59.79,8.29,0.95,18.95-2.86,25.37-4.53,44.37-11.54,57.44-25.23,81.55-56.17,8.3-10.66,23.08-15.13,31.71-25.37,16.59-19.68,31.09-39.45,46.2-60.7q7.71-5.9,15.41-11.78c6.95-8.83,11.38-19.95,19.02-28.09,4.27-4.54,9.59-6.89,14.5-10.87q16.305-16.77,32.62-33.53c12.66-9.18,24.94-14.77,33.52-28.08,11.32-17.57,31.52-36,47.11-49.83,9.7-8.61,22.26-21.89,17.22-44.4-7.76-34.65-33.94-15.59-62.52-20.84q-22.65-3.165-45.3-6.34c-9.88-2.39-29.61-1.66-32.62-10.87,9.12-5.77-1.88-42.458-7.24-44.4v4.53Q1477.215,988.907,1475.86,1006.58ZM516.366,733.86c-1.289,3.106-1.935,2.293-2.718,6.342,5.222,4.181,5.548,18.81,4.53,26.275-5.939,2.262-23.287,7.176-25.369,13.591v7.248c3.486,0.854,4.212,1.625,9.061,1.812,1.256-2.416,4.048-7.474,6.342-9.06,18.023-7.96,54.122,5.5,74.295-2.719h16.308c8.749,3.566,22.88,9.076,33.524,1.813l0.906-4.531a18.048,18.048,0,0,1-3.624-4.53c-14.279-1.635-53.285-.807-63.423-7.248-1.131-.719-3.386-4.844-4.53-5.436-6.691-3.466-15.767,2.045-19.027-4.531v-9.06c-0.991-3.259-4.821-6.525-6.342-9.966H516.366Zm86.074,74.295c-4.118,1.846-7.2.036-9.061,4.53,3.525,2.394,1.26,4.618,3.624,8.154,5.05,7.553,20.5,12.1,31.712,13.591,3.416-3.115,6.349-5.1,7.248-10.873v-5.436C625.055,815.75,615.849,809.674,602.44,808.155Zm69.764,52.55-31.711.906v1.812c6.921,2.637,7.118,6.341,18.121,6.342h20.839v-1.812q0.452-1.812.906-3.624c-2.073-1.478-1.489-1.761-4.531-2.718ZM1170.52,963.993c3.69,1.533,3.09,4.894,2.72,9.966l4.53,21.745c-0.9.3-1.81,0.6-2.72,0.906h-24.46V994.8C1156.1,989.521,1168.47,969.421,1170.52,963.993ZM606.064,988.456c4.984-.008,6.5.607,9.06,2.718-2.9.715-2.176,0.864-4.53,1.812-1.481-1.837-3.39-1.567-5.436-2.718Zm125.033,0c21.38-.766,45.945,11.337,45.3,31.714-2.075,1.69-2.2,5.02-3.624,7.25-2.73,2.77-5.839,2.94-11.778,2.71-4.826-6.89-16.265-9.6-23.557-16.31-4.652-4.27-7.227-10.97-11.779-15.4C727,993.593,729.373,992.651,731.1,988.456Zm106.912,62.514v32.62c1.818,4.52,4.231,6.19,4.53,13.59-2.835,1.17-2.221,1.72-5.436,2.72-4.749,2.66-18.482-3.61-22.651-6.34-13.19-8.64-29.38-21.48-41.678-29.9-4.862-3.34-10.787-2.67-12.684-9.06,9.565-4.39,12.142-10.93,14.5-22.65,9.912-.77,20.839-1.49,21.745-11.78-2.137-1.67-1.807-2.49-1.812-6.35,2.646-1.28,2-1.8,5.436-2.71l2.718,0.9c1.858,4.97,7.613,15.01,11.779,18.12,3.478,2.6,8.793,1.61,11.778,4.53,5.48,5.38,1.663,14.05,11.779,15.41,1.455-2.91,3.354-4.14,6.342-5.44,0.6,1.21,1.208,2.42,1.812,3.62C842.987,1049.82,843.234,1050.68,838.009,1050.97Zm644.191-39.86v3.62q-2.715-.45-5.44-0.91v-2.71h5.44ZM994.753,1340.9c3.594,1.35,3.962,3.13,6.337,5.44,0.17,4.81.03,7.15-2.713,9.06h-0.906c-2.755-1.58-4.961-3.33-6.342-6.34-1.081-2.39-.559-4.23.906-6.34C992.941,1342.11,993.847,1341.51,994.753,1340.9Zm-21.745,45.3h8.154c1.371,2.63,3.982,3.32,5.436,5.44,3.109,4.53-.577,11.25,1.813,17.22,5.137,12.82,13.429,32.36,16.309,46.2q-0.45,9.975-.91,19.94a131.521,131.521,0,0,0,6.35,26.27q11.775,17.22,23.55,34.43c1.27,1.45,10.27,10.01,10.87,8.16,7.74,12.52,13.41,23.26,19.94,35.33q1.815,8.61,3.62,17.22c3.5,6.25,8.84,13.47,12.69,19.93,5.24,8.79,2.9,46,1.81,56.17a10.876,10.876,0,0,1-5.44,1.81c-11.07-15.61-11.13-33.52-19.93-51.64-16.41-33.8-37.1-83.88-66.141-104.19-10.123-7.08-22.989-9.64-35.336-14.5-15.08-5.94-43.088-11.49-66.14-6.34-16.052,3.58-37.64,8.19-55.268,9.96q-0.453-2.715-.907-5.43c4.086-5.77,12.31-17.89,12.685-24.47-3.693-2.24-7.8-5.87-8.154-11.77h26.275c8.061-1.56,14.664-4.37,25.369-4.53,0.978-3.09,1.685-4.38,1.812-9.06-5.835-4.33-12.065-8.32-18.121-12.69,0.3-.6.6-1.21,0.906-1.81,1.6-2.07,23.445-8.17,27.181-9.06h15.4c8.232-2.19,10.951-8.21,18.12-10.87,11.3-4.21,21.244-1.01,28.087-9.06,0.5-5.67-1.014-6.99-1.812-14.5,2.132-1.47,1.887-1.73,2.719-4.53C967.289,1389.43,971.329,1388.42,973.008,1386.2Zm118.692,36.25q5.88,1.8,11.78,3.62c0.94,2.99,1.59,3.76,1.81,8.15-3.64,4.38-3.26,7.25-11.78,7.25-2.75-3.78-6.44-3.81-8.15-9.06v-6.34C1087.93,1425.31,1090.27,1424.45,1091.7,1422.45Zm-7.25,56.17h6.34c2.18,3.92,2.88,7.48,2.72,14.5-2.89,1.4-2.14,2.02-6.34,2.72-0.61-.31-1.21-0.61-1.81-0.91-1.75-5.43-3.18-6.24-3.63-13.59C1083.75,1480.18,1083.23,1480.42,1084.45,1478.62Zm-183.925,35.34c35.027-.82,70.491,13.06,84.261,32.61h-1.812c-15.576-21.47-64.75-38.35-104.194-28.08-19.834,5.16-42.89,27.56-51.644,44.39-22.889,44.03-12.878,110.36,5.437,151.31q6.793,10.875,13.59,21.74h-0.906c-31.988-47.75-52.873-131.25-10.872-186.64,8.211-10.83,27.348-26.9,40.771-31.71C883.123,1514.72,893.9,1517.5,900.525,1513.96Zm659.595,32.61c53.51-1.12,96.82,15.92,130.47,36.24,9.8,5.93,35.87,20.46,39.86,29.9h-0.9c-4.5-6.03-11.94-6.69-17.22-11.77-34.2-32.94-131.85-69.25-192.98-38.06-38.63,19.71-58.89,59.29-58.9,117.79,0,18.07,1.02,32.47,6.35,45.3,25.42,61.23,105.11,95.12,189.36,67.95,28.47-9.18,50.88-29.7,67.05-51.64,12.81-17.39,34.21-53.22,26.27-89.7-3.2-14.69-11.37-25.46-16.31-37.15h0.91c18.18,26.08,22.91,62.07,9.96,98.76-10.61,30.07-51.75,69.52-84.26,80.64-14.84,5.07-24.81,4.77-42.58,8.15-16.68,3.17-51.84,4.46-67.95-1.81-52.19-20.3-104.07-64.37-89.7-141.34v-19.94c2.22-6.91,9.66-30.07,13.59-35.33,16.6-22.21,32.03-36.69,57.99-49.83,4.81-2.44,10.19-.06,16.3-1.81C1550.65,1551.99,1556.31,1548.61,1560.12,1546.57Zm-574.428.91c2.678,1.06,3,1.58,4.531,3.62,0.3,0.31.6,0.61,0.906,0.91C988.208,1550.87,987.33,1549.78,985.692,1547.48Zm5.437,4.53c3.134,1.97,5.131,3.62,3.624,5.44v-0.91C992.679,1555.02,992.232,1554.66,991.129,1552.01Zm7.248,7.25h1.813C998.849,1560.48,999.986,1560.09,998.377,1559.26Zm4.533,4.53c2.56,1.75,4.16,3.2,5.43,6.34h-0.9C1005.93,1568.02,1004.42,1565.9,1002.91,1563.79Zm5.43,6.34c17.24,12.58,39.65,66.56,31.71,104.19q-3.165,9.975-6.34,19.94c-2.81,13.14-2.09,22.29-8.15,31.71-13.33,20.7-39.084,31.93-62.519,42.58-29.161,13.26-81.745,7.34-97.851-13.59H867c10.168,12.02,41.576,22.17,67.046,17.22,36.881-7.18,74.642-20.28,90.6-48.02,13.11-22.8,18.25-85.06,7.25-113.26C1026.09,1596.01,1014.23,1583.82,1008.34,1570.13Zm769.23,86.07c6.26,0.29,8.09,2.27,13.59,3.63,4.7,7.33,4.33,19.57,6.34,28.08,10.24,43.46,3.71,62.85-17.21,92.42-18.49,26.13-37.41,38.42-62.52,57.08l-15.4,15.4c-2.91,2.01-6.56.86-8.16,1.82-7.67,4.6-16.01,10.6-24.46,14.49-12.85,5.91-42.62,6.51-52.55,5.44q-15.855,1.35-31.71,2.72l-13.59-4.53c-35.5-7.84-71.78-13.42-99.67-25.37-8.32-3.57-17.59.07-22.65-3.63-9.93-7.25-3.15-42.87,2.72-48.02,17.85-11.62,43.6,3.33,58.89,9.06,23.28,8.72,90.88,21.03,124.13,13.59,51.07-11.41,101.28-55.06,119.6-98.75,4.76-11.36,10.13-23.02,13.59-33.53C1772.43,1674.19,1772.01,1664.86,1777.57,1656.2Zm-977.615,77.92c16.292,2.81,21.953,20.95,32.618,29.9,15.237,12.8,32.95,23.51,55.268,28.99,39.634,9.75,69.13-11.24,96.945-17.21,21.244-4.56,43.044-3.18,48.924,13.59,7.78,15.7-11,39.05-18.12,44.4-8.97,6.73-18.843,19.09-38.052,12.68-5.233-1.75-11.1-12.83-20.839-9.06-18.536,7.17-33.339,11.68-57.08,5.44-1.7-6.56-4.746-5.99-8.154-9.97q-0.906-4.98-1.812-9.97c-3.132-3.47-6-5.32-12.685-5.43a14.658,14.658,0,0,1-9.06,8.15c-5.162,2.82-12.228,1.26-17.215,0v-1.81c-1.557-4.01.846-5.5,1.812-8.15,2.247-6.18-4.11-14.86-6.342-18.12-7.143-7.07-15.83-8.49-25.369-14.5-1.736-1.1-22.865-32.18-23.557-34.43C795.162,1741.88,798.965,1736.61,799.955,1734.12Zm47.114,2.72c3.758,2.45,17.373,16.14,15.4,17.22C857.994,1747.89,850.155,1744.16,847.069,1736.84ZM1316.4,1990.53h48.92c7.63,3.75,17.3,5.6,29.9,7.25,0.3,0.6.6,1.21,0.91,1.81-0.31.6-.61,1.21-0.91,1.81-2.09,3.95-31.13,22.51-37.15,22.65h-19.93c-2.88,1.27-7.07,4.18-8.15,9.06,0.9,2.72,1.81,5.44,2.71,8.16,3.08,7.19,8.15,10.34,19.03,9.96,4.8-6.6,8.76-10.27,20.84-9.96,1.5,2.03,2.61,2.04,5.44,2.72,2.11,3.67,3.4,3.81,3.62,9.96-6.57,3.49-11.04,13.23-19.03,15.41-20.57,5.61-56.6,3.89-73.39-5.44-1.7-2.11-2.15-2.82-2.71-6.34,3.18-1.15,6.92-2.92,8.15-6.35,3.23-6.37-1.07-7.35.91-13.59a137.117,137.117,0,0,0,6.34-39.86C1306.3,1995.41,1312.22,1993.54,1316.4,1990.53Zm19.93,114.16h3.62v2.72c-1.21.3-2.41,0.6-3.62,0.91v-3.63Zm-15.4,2.72h3.62c0.3,1.21.6,2.42,0.91,3.62h-6.35v-2.71C1319.72,2108.01,1320.32,2107.71,1320.93,2107.41Z" data-name="Color Fill 2" class="colorb1c0ff svgShape"></path><path fill="#d7dbdd" fill-rule="evenodd" d="M1475.86,1006.58q1.35-19.937,2.72-39.869h2.71c1.89,7.748,12.22,30.423,9.06,39.869-0.89,2.69-3.51,3.62-4.53,7.24,20.95,10.11,51.75,9.73,77.92,14.5s49.93-11.6,60.71,14.5c3.57,8.65,2.45,26.46-.91,34.43-9.03,21.4-47.65,44.55-61.61,66.14-8.6,13.3-20.85,18.91-33.52,28.08q-16.305,16.77-32.62,33.53c-5.49,4.45-12.01,7.12-16.31,12.68-25.93,33.57-51.54,66.41-78.82,98.76-8.64,10.24-23.4,14.71-31.71,25.37-24.04,30.83-37.23,44.76-81.55,56.17-6.52,1.68-16.98,5.36-25.37,4.53-40.66-3.98-50.22-34.16-68.86-59.79-26.36-36.27-46.42-76.87-70.67-115.98q-10.41-14.04-20.84-28.08-11.31-20.385-22.65-40.78c-7.18-10.96-16.95-20.14-22.65-32.61-7.97-17.47-14.76-34.82-24.46-50.74-6.27-10.3-18.7-23.59-13.59-44.4,3.51-14.3,20.17-32.353,41.68-28.08q10.41,3.165,20.84,6.34c14.17,3.11,39.03-3.69,40.77-13.592,10.45-11.605,28.53-18.641,37.15-31.711q1.8-5.889,3.62-11.779c2.61-3.177,7.13-4.7,8.15-7.248l-0.9-1.812c0.83-.114,8.07-5.341,10.87-7.248q7.245-31.708,14.5-63.423,6.33-12.683,12.68-25.369c3.62-11.679.16-25.619,3.63-36.241,11.35-34.793,34.43-62.76,65.23-78.825h181.21c4.98,9.9,15.44,4.991,15.4,21.744-3.99,8.851,11.11,42.522,7.25,63.423q-4.53,22.2-9.06,44.4v32.617q-0.45,17.212-.91,34.429c-2.62,14.986-3.73,30.829-6.34,43.49C1461.01,986.076,1464.28,1004.08,1475.86,1006.58Zm-305.34-42.587c-3.78,10.38-15.39,19.8-19.93,32.617h26.28l0.9-5.436c-3.91-6.453-4.58-17.2-4.53-27.181h-2.72Zm311.68,50.737v-3.62h-5.44v2.71h1.82C1479.78,1014.13,1480.99,1014.43,1482.2,1014.73ZM905.055,1515.77c58.183-.21,115.965,53.41,127.755,97.85,5.85,22.07,5.63,47.45.9,68.86-3.52,15.97-2.47,27.16-8.15,39.86-8.56,19.13-49.236,42.09-72.485,47.12-86.418,18.7-120.01-39.53-135-102.38-6.1-25.59-7.964-63.24,1.812-87.89,10.019-25.26,30.653-50.37,56.174-59.8Q890.558,1517.575,905.055,1515.77ZM1571.9,1551.1c64.49-.97,145.37,35.85,168.52,75.2,10.59,18.02,11.67,53.15,4.53,76.11-12.83,41.26-47.76,78.67-88.79,91.51-103.38,32.35-220.03-24.44-194.8-144.96l12.69-39.87c11.49-25.82,35.53-43.96,63.42-53.46Z" data-name="Color Fill 1" class="colorfff svgShape"></path></svg></g></svg>